<svg width="64" height="64" viewBox="0 0 64 64" fill="none" xmlns="http://www.w3.org/2000/svg">
<path d="M0 12C0 9.79125 2.04714 8 4.57143 8H59.4286C61.9571 8 64 9.79125 64 12C64 14.2125 61.9571 16 59.4286 16H4.57143C2.04714 16 0 14.2125 0 12ZM0 32C0 29.7875 2.04714 28 4.57143 28H59.4286C61.9571 28 64 29.7875 64 32C64 34.2125 61.9571 36 59.4286 36H4.57143C2.04714 36 0 34.2125 0 32ZM59.4286 56H4.57143C2.04714 56 0 54.2125 0 52C0 49.7875 2.04714 48 4.57143 48H59.4286C61.9571 48 64 49.7875 64 52C64 54.2125 61.9571 56 59.4286 56Z" fill="black"/>
</svg>
