<svg width="64" height="64" viewBox="0 0 64 64" fill="none" xmlns="http://www.w3.org/2000/svg">
<path d="M36.3822 26.1421H41.4002V31.2741H43.9402C45.1268 31.2688 46.3046 31.0716 47.4282 30.6901C48.0187 30.4945 48.5871 30.2378 49.1242 29.9241C48.4368 28.9729 48.0288 27.8487 47.9462 26.6781C47.7356 24.9698 48.1754 23.2449 49.1782 21.8461L49.7062 21.2361L50.3342 21.7421C52.0003 22.9638 53.129 24.7828 53.4842 26.8181C55.4216 26.2222 57.516 26.4171 59.3102 27.3601L60.0002 27.7601L59.6382 28.4681C58.9042 29.7062 57.8186 30.6981 56.5195 31.3178C55.2204 31.9374 53.7663 32.1568 52.3422 31.9481C47.9962 42.7741 38.5422 47.9001 27.0582 47.9001C24.1984 48.0702 21.3456 47.4653 18.8009 46.1491C16.2562 44.833 14.114 42.8544 12.6002 40.4221L12.5502 40.3361L12.0982 39.4181C11.0759 37.0988 10.6768 34.5529 10.9402 32.0321L11.0102 31.2721H15.2962V26.1421H20.3162V21.1221H30.3562V16.1021H36.3802V26.1421H36.3822Z" fill="#3A4E55"/>
<path d="M52.6478 28.0419C52.6822 26.9397 52.4408 25.8464 51.9456 24.8611C51.4503 23.8758 50.7169 23.0298 49.8118 22.3999C49.0279 23.5507 48.6582 24.9336 48.7632 26.3221C48.8682 27.7105 49.4417 29.0221 50.3898 30.0419C48.526 31.423 46.2592 32.1519 43.9398 32.1159H11.7658C11.4896 34.6834 11.9524 37.2764 13.0998 39.5899L13.4658 40.2599C13.6973 40.6529 13.9504 41.0328 14.2238 41.3979C15.5464 41.4832 16.7658 41.5132 17.8818 41.4879C19.6901 41.499 21.4898 41.2367 23.2198 40.7099C23.3166 40.6765 23.4227 40.6829 23.5148 40.7277C23.6068 40.7725 23.6773 40.8521 23.7108 40.9489C23.7442 41.0457 23.7378 41.1518 23.6929 41.2439C23.6481 41.336 23.5686 41.4065 23.4718 41.4399C23.2918 41.5019 23.1038 41.5619 22.9098 41.6159C21.7059 41.9526 20.4683 42.1538 19.2198 42.2159C19.3078 42.2159 19.1278 42.2299 19.1278 42.2299L18.9638 42.2439C18.3818 42.2759 17.7638 42.2839 17.1138 42.2839C16.4118 42.2839 15.7138 42.2699 14.9478 42.2319L14.9278 42.2459C16.4877 43.8684 18.377 45.1381 20.4686 45.9695C22.5602 46.8009 24.8056 47.1747 27.0538 47.0659C38.1738 47.0659 47.6058 42.1359 51.7838 31.0659C54.7478 31.3699 57.5958 30.6139 58.8898 28.0859C57.9234 27.5958 56.8564 27.3367 55.7729 27.3291C54.6894 27.3215 53.6189 27.5655 52.6458 28.0419" fill="#00AADA"/>
<path d="M52.6479 28.0419C52.6824 26.9397 52.441 25.8464 51.9457 24.8611C51.4505 23.8758 50.717 23.0298 49.8119 22.3999C49.0281 23.5507 48.6583 24.9336 48.7634 26.3221C48.8684 27.7105 49.4419 29.0221 50.3899 30.0419C48.5261 31.423 46.2594 32.1519 43.9399 32.1159H13.6719C13.5069 33.9086 13.808 35.7135 14.5459 37.3556C15.2839 38.9976 16.4338 40.4211 17.8839 41.4879C19.6923 41.499 21.492 41.2367 23.2219 40.7099C23.2698 40.6934 23.3206 40.6864 23.3712 40.6895C23.4218 40.6925 23.4713 40.7055 23.5169 40.7277C23.5625 40.7499 23.6033 40.7809 23.6369 40.8188C23.6705 40.8568 23.6964 40.901 23.7129 40.9489C23.7295 40.9968 23.7364 41.0476 23.7333 41.0982C23.7303 41.1488 23.7173 41.1983 23.6951 41.2439C23.6729 41.2895 23.642 41.3303 23.604 41.3639C23.5661 41.3975 23.5218 41.4234 23.4739 41.4399C23.2939 41.5019 23.1059 41.5619 22.9119 41.6159C21.6758 41.9623 20.4057 42.1729 19.1239 42.2439L19.0859 42.1999C22.8699 44.1419 28.3579 44.1339 34.6499 41.7179C41.8293 38.8173 48.1099 34.0627 52.8499 27.9399L52.6499 28.0359" fill="#27B9EC"/>
<path d="M11.8262 35.4639C12.0157 36.8998 12.4464 38.2934 13.1002 39.5859L13.4662 40.2559C13.6977 40.6489 13.9508 41.0288 14.2242 41.3939C15.5468 41.4792 16.7662 41.5092 17.8822 41.4839C19.6905 41.495 21.4902 41.2327 23.2202 40.7059C23.2681 40.6894 23.3188 40.6824 23.3694 40.6855C23.4201 40.6885 23.4696 40.7015 23.5152 40.7237C23.5608 40.7459 23.6015 40.7769 23.6352 40.8148C23.6688 40.8528 23.6946 40.897 23.7112 40.9449C23.7277 40.9928 23.7347 41.0436 23.7316 41.0942C23.7285 41.1448 23.7156 41.1943 23.6934 41.2399C23.6712 41.2855 23.6402 41.3263 23.6023 41.3599C23.5643 41.3935 23.5201 41.4194 23.4722 41.4359C23.2922 41.4979 23.1042 41.5579 22.9102 41.6119C21.6755 41.9532 20.4074 42.1591 19.1282 42.2259H18.9282C18.3462 42.2579 17.7282 42.2779 17.0842 42.2779C16.3822 42.2779 15.6662 42.2639 14.8842 42.2259C16.449 43.8496 18.3427 45.1202 20.4385 45.9525C22.5343 46.7849 24.7837 47.1597 27.0362 47.0519C36.5562 47.0519 44.8362 43.4379 49.6362 35.4519L11.8262 35.4639Z" fill="#088CB9"/>
<path d="M13.96 35.4639C14.445 37.9 15.8495 40.0559 17.882 41.4839C19.6903 41.495 21.49 41.2327 23.22 40.7059C23.3168 40.6725 23.4229 40.6789 23.515 40.7237C23.607 40.7685 23.6775 40.8481 23.711 40.9449C23.7444 41.0417 23.738 41.1478 23.6932 41.2399C23.6483 41.332 23.5688 41.4025 23.472 41.4359C23.292 41.4979 23.104 41.5579 22.91 41.6119C21.669 41.9524 20.395 42.1583 19.11 42.2259C22.894 44.1679 28.366 44.1399 34.656 41.7219C38.5376 40.1933 42.1639 38.0824 45.41 35.4619L13.96 35.4639Z" fill="#039CC7"/>
<path d="M19.7779 27.342H20.1219V30.968H19.7779V27.342ZM19.1179 27.342H19.4759V30.968H19.1179V27.342ZM18.4579 27.342H18.8159V30.968H18.4599V27.342H18.4579ZM17.7979 27.342H18.1559V30.968H17.7999V27.342H17.7979ZM17.1379 27.342H17.4959V30.968H17.1399V27.342H17.1379ZM16.4919 27.342H16.8359V30.968H16.4959V27.342H16.4919ZM16.1299 26.98H20.4799V31.332H16.1319V26.98H16.1299Z" fill="#00ACD3"/>
<path d="M24.7999 22.322H25.1439V25.948H24.7999V22.322ZM24.1399 22.322H24.4979V25.948H24.1399V22.322ZM23.4799 22.322H23.8379V25.948H23.4799V22.322ZM22.8199 22.322H23.1779V25.948H22.8199V22.322ZM22.1599 22.322H22.5159V25.948H22.1599V22.322ZM21.5139 22.322H21.8579V25.948H21.5139V22.322ZM21.1519 21.96H25.5039V26.312H21.1539V21.958L21.1519 21.96Z" fill="#00ACD3"/>
<path d="M24.7999 27.342H25.1439V30.968H24.7999V27.342ZM24.1399 27.342H24.4979V30.968H24.1399V27.342ZM23.4799 27.342H23.8379V30.968H23.4799V27.342ZM22.8199 27.342H23.1779V30.968H22.8199V27.342ZM22.1599 27.342H22.5159V30.968H22.1599V27.342ZM21.5139 27.342H21.8579V30.968H21.5139V27.342ZM21.1519 26.98H25.5039V31.332H21.1539V26.98H21.1519Z" fill="#26C2EE"/>
<path d="M29.8179 27.342H30.1619V30.968H29.8179V27.342ZM29.1579 27.342H29.5159V30.968H29.1599V27.342H29.1579ZM28.4979 27.342H28.8559V30.968H28.4999V27.342H28.4979ZM27.8379 27.342H28.1999V30.968H27.8419V27.342H27.8379ZM27.1779 27.342H27.5359V30.968H27.1779V27.342ZM26.5319 27.342H26.8759V30.968H26.5319V27.342ZM26.1699 26.98H30.5219V31.332H26.1739V26.98H26.1699Z" fill="#00ACD3"/>
<path d="M29.8179 22.322H30.1619V25.948H29.8179V22.322ZM29.1579 22.322H29.5159V25.948H29.1599V22.322H29.1579ZM28.4979 22.322H28.8559V25.948H28.4999V22.322H28.4979ZM27.8379 22.322H28.1999V25.948H27.8419V22.322H27.8379ZM27.1779 22.322H27.5359V25.948H27.1779V22.322ZM26.5319 22.322H26.8759V25.948H26.5319V22.322ZM26.1699 21.96H30.5219V26.312H26.1739V21.958L26.1699 21.96Z" fill="#26C2EE"/>
<path d="M34.8402 27.342H35.1842V30.968H34.8402V27.342ZM34.1802 27.342H34.5382V30.968H34.1802V27.342ZM33.5202 27.342H33.8782V30.968H33.5202V27.342ZM32.8602 27.342H33.2182V30.968H32.8602V27.342ZM32.2002 27.342H32.5582V30.968H32.2002V27.342ZM31.5542 27.342H31.8982V30.968H31.5542V27.342ZM31.2002 26.98H35.5522V31.332H31.2002V26.98Z" fill="#26C2EE"/>
<path d="M34.8399 22.322H35.1839V25.948H34.8399V22.322ZM34.1799 22.322H34.5379V25.948H34.1799V22.322ZM33.5199 22.322H33.8779V25.948H33.5199V22.322ZM32.8599 22.322H33.2179V25.948H32.8599V22.322ZM32.1999 22.322H32.5579V25.948H32.1999V22.322ZM31.5539 22.322H31.8979V25.948H31.5539V22.322ZM31.1919 21.96H35.5439V26.312H31.1999V21.958L31.1919 21.96Z" fill="#00ACD3"/>
<path d="M34.8402 17.3H35.1842V20.926H34.8402V17.3ZM34.1802 17.3H34.5382V20.926H34.1802V17.3ZM33.5202 17.3H33.8782V20.926H33.5202V17.3ZM32.8602 17.3H33.2182V20.926H32.8602V17.3ZM32.2002 17.3H32.5582V20.926H32.2002V17.3ZM31.5542 17.3H31.8982V20.926H31.5542V17.3ZM31.2002 16.938H35.5522V21.29H31.2002V16.938Z" fill="#26C2EE"/>
<path d="M39.8599 27.342H40.1999V30.968H39.8599V27.342ZM39.1999 27.342H39.5559V30.968H39.1999V27.342ZM38.5399 27.342H38.8979V30.968H38.5399V27.342ZM37.8799 27.342H38.2379V30.968H37.8799V27.342ZM37.2199 27.342H37.5779V30.968H37.2199V27.342ZM36.5739 27.342H36.9179V30.968H36.5739V27.342ZM36.2119 26.98H40.5639V31.332H36.2139V26.98H36.2119Z" fill="#00ACD3"/>
<path d="M25.2322 38.386C25.4696 38.386 25.7016 38.4564 25.8989 38.5882C26.0962 38.7201 26.2501 38.9075 26.3409 39.1268C26.4317 39.346 26.4555 39.5873 26.4092 39.8201C26.3629 40.0529 26.2486 40.2667 26.0808 40.4345C25.9129 40.6023 25.6991 40.7166 25.4663 40.7629C25.2336 40.8092 24.9923 40.7855 24.773 40.6946C24.5537 40.6038 24.3663 40.45 24.2345 40.2527C24.1026 40.0553 24.0322 39.8233 24.0322 39.586C24.0322 39.2677 24.1587 38.9625 24.3837 38.7375C24.6087 38.5124 24.914 38.386 25.2322 38.386Z" fill="#D5EEF2"/>
<path d="M25.2322 38.7261C25.3389 38.7259 25.4447 38.7456 25.5442 38.7841C25.4976 38.8111 25.4578 38.8486 25.4281 38.8936C25.3983 38.9386 25.3793 38.9898 25.3726 39.0433C25.3659 39.0968 25.3717 39.1512 25.3894 39.2021C25.4072 39.253 25.4365 39.2991 25.475 39.3369C25.5136 39.3746 25.5603 39.4029 25.6116 39.4196C25.6629 39.4363 25.7173 39.4409 25.7707 39.4331C25.824 39.4253 25.8749 39.4052 25.9192 39.3745C25.9635 39.3438 26.0002 39.3033 26.0262 39.2561C26.097 39.4263 26.1111 39.6147 26.0667 39.7935C26.0222 39.9724 25.9215 40.1322 25.7793 40.2495C25.6372 40.3667 25.4611 40.4352 25.277 40.4449C25.093 40.4545 24.9107 40.4048 24.7571 40.303C24.6035 40.2012 24.4866 40.0528 24.4237 39.8795C24.3608 39.7063 24.3552 39.5175 24.4078 39.3408C24.4603 39.1642 24.5682 39.0091 24.7156 38.8984C24.8629 38.7877 25.042 38.7273 25.2262 38.7261" fill="#3A4E55"/>
<path d="M4.00005 35.8981H59.84C58.624 35.5901 55.994 35.1741 56.426 33.5801C54.216 36.1381 48.884 35.3801 47.538 34.1141C46.04 36.2881 37.316 35.4621 36.708 33.7681C34.83 35.9681 29.008 35.9681 27.13 33.7681C26.53 35.4621 17.798 36.2881 16.3 34.1141C14.954 35.3761 9.62405 36.1381 7.41205 33.5801C7.84605 35.1801 5.21205 35.5901 3.99805 35.8981" fill="#3A4E55"/>
<path d="M28.4221 47.036C25.9662 45.9893 23.9971 44.0524 22.9101 41.614C21.6113 41.9585 20.2787 42.1597 18.9361 42.214C18.3548 42.246 17.7434 42.2627 17.1021 42.264C16.3634 42.264 15.5848 42.242 14.7661 42.198C16.3457 43.8429 18.261 45.1283 20.3817 45.9669C22.5024 46.8055 24.7788 47.1777 27.0561 47.058C27.5148 47.058 27.9701 47.0494 28.4221 47.032" fill="#C0DBE1"/>
<path d="M24.014 43.546C23.5781 42.9433 23.208 42.2956 22.91 41.614C21.6112 41.9585 20.2786 42.1597 18.936 42.214C20.5172 43.0068 22.2471 43.4592 24.014 43.542" fill="#D5EEF2"/>
</svg>
