<svg width="32" height="32" viewBox="0 0 64 64" fill="none" xmlns="http://www.w3.org/2000/svg">
<path d="M21.4065 49.675C21.4065 49.925 21.1097 50.125 20.7355 50.125C20.3097 50.1625 20.0129 49.9625 20.0129 49.675C20.0129 49.425 20.3097 49.225 20.6839 49.225C21.071 49.1875 21.4065 49.3875 21.4065 49.675ZM17.3935 49.1125C17.3032 49.3625 17.5613 49.65 17.9484 49.725C18.2839 49.85 18.671 49.725 18.7484 49.475C18.8258 49.225 18.5806 48.9375 18.1935 48.825C17.8581 48.7375 17.4839 48.8625 17.3935 49.1125ZM23.0968 48.9C22.7226 48.9875 22.4645 49.225 22.5032 49.5125C22.5419 49.7625 22.8774 49.925 23.2645 49.8375C23.6387 49.75 23.8968 49.5125 23.8581 49.2625C23.8194 49.025 23.471 48.8625 23.0968 48.9ZM31.5871 1C13.6903 1 0 14.1625 0 31.5C0 45.3625 9.00645 57.225 21.871 61.4C23.5226 61.6875 24.1032 60.7 24.1032 59.8875C24.1032 59.1125 24.0645 54.8375 24.0645 52.2125C24.0645 52.2125 15.0323 54.0875 13.1355 48.4875C13.1355 48.4875 11.6645 44.85 9.54839 43.9125C9.54839 43.9125 6.59355 41.95 9.75484 41.9875C9.75484 41.9875 12.9677 42.2375 14.7355 45.2125C17.5613 50.0375 22.2968 48.65 24.1419 47.825C24.4387 45.825 25.2774 44.4375 26.2065 43.6125C18.9935 42.8375 11.7161 41.825 11.7161 29.8C11.7161 26.3625 12.6968 24.6375 14.7613 22.4375C14.4258 21.625 13.329 18.275 15.0968 13.95C17.7935 13.1375 24 17.325 24 17.325C26.5806 16.625 29.3548 16.2625 32.1032 16.2625C34.8516 16.2625 37.6258 16.625 40.2065 17.325C40.2065 17.325 46.4129 13.125 49.1097 13.95C50.8774 18.2875 49.7806 21.625 49.4452 22.4375C51.5097 24.65 52.7742 26.375 52.7742 29.8C52.7742 41.8625 45.1742 42.825 37.9613 43.6125C39.1484 44.6 40.1548 46.475 40.1548 49.4125C40.1548 53.625 40.1161 58.8375 40.1161 59.8625C40.1161 60.675 40.7097 61.6625 42.3484 61.375C55.2516 57.225 64 45.3625 64 31.5C64 14.1625 49.4839 1 31.5871 1ZM12.5419 44.1125C12.3742 44.2375 12.4129 44.525 12.6323 44.7625C12.8387 44.9625 13.1355 45.05 13.3032 44.8875C13.471 44.7625 13.4323 44.475 13.2129 44.2375C13.0065 44.0375 12.7097 43.95 12.5419 44.1125ZM11.1484 43.1C11.0581 43.2625 11.1871 43.4625 11.4452 43.5875C11.6516 43.7125 11.9097 43.675 12 43.5C12.0903 43.3375 11.9613 43.1375 11.7032 43.0125C11.4452 42.9375 11.2387 42.975 11.1484 43.1ZM15.329 47.55C15.1226 47.7125 15.2 48.0875 15.4968 48.325C15.7935 48.6125 16.1677 48.65 16.3355 48.45C16.5032 48.2875 16.4258 47.9125 16.1677 47.675C15.8839 47.3875 15.4968 47.35 15.329 47.55ZM13.8581 45.7125C13.6516 45.8375 13.6516 46.1625 13.8581 46.45C14.0645 46.7375 14.4129 46.8625 14.5806 46.7375C14.7871 46.575 14.7871 46.25 14.5806 45.9625C14.4 45.675 14.0645 45.55 13.8581 45.7125Z" fill="black"/>
</svg>
