<svg width="64" height="64" viewBox="0 0 64 64" fill="none" xmlns="http://www.w3.org/2000/svg">
<path d="M59.4286 4H4.55714C2.04286 4 0 5.8125 0 8.0375V55.9625C0 58.1875 2.04286 60 4.55714 60H59.4286C61.9429 60 64 58.1875 64 55.9625V8.0375C64 5.8125 61.9429 4 59.4286 4ZM19.3429 52H9.85714V25.275H19.3571V52H19.3429ZM14.6 21.625C11.5571 21.625 9.1 19.4625 9.1 16.8125C9.1 14.1625 11.5571 12 14.6 12C17.6286 12 20.1 14.1625 20.1 16.8125C20.1 19.475 17.6429 21.625 14.6 21.625ZM54.9 52H45.4143V39C45.4143 35.9 45.3429 31.9125 40.4857 31.9125C35.5429 31.9125 34.7857 35.2875 34.7857 38.775V52H25.3V25.275H34.4V28.925H34.5286C35.8 26.825 38.9 24.6125 43.5143 24.6125C53.1143 24.6125 54.9 30.15 54.9 37.35V52Z" fill="black"/>
</svg>
