<svg width="64" height="64" viewBox="0 0 64 64" fill="none" xmlns="http://www.w3.org/2000/svg">
<path fill-rule="evenodd" clip-rule="evenodd" d="M36.9742 4C36.5898 4.00537 36.2089 4.07291 35.8462 4.2C39.0762 6.324 35.2662 9.4 37.0462 12C36.9235 11.1255 37.0626 10.2342 37.446 9.43868C37.8293 8.64315 38.4397 7.97898 39.2002 7.53C39.7702 7.056 40.1362 6.886 40.0142 6.102C39.8162 4.818 38.1042 4 36.9742 4ZM41.5742 4.828C41.1282 7.074 40.5742 7.156 38.9282 8.602C38.2862 9.10813 37.8331 9.81553 37.6419 10.6104C37.4507 11.4052 37.5325 12.2413 37.8742 12.984C31.0742 10.344 22.3582 8.748 15.9682 13.316C13.6702 14.958 12.2682 17.316 9.43416 18.278C7.60216 18.906 5.80216 18.72 4.65416 20.536C4.2343 21.0604 4.01498 21.7172 4.0355 22.3886C4.05602 23.0601 4.31506 23.7022 4.76616 24.2C5.10816 24.55 5.76616 24.774 6.03816 25.13C6.19616 25.33 6.19216 25.53 6.34216 25.796C6.60725 26.4159 6.99036 26.9783 7.47016 27.452C7.76416 27.694 8.77416 27.93 8.94616 28.188C9.16216 28.51 8.60216 29.788 9.07216 29.988C9.38816 30.134 10.3142 28.5 10.4042 28.356C10.2202 29.642 9.97816 31.924 11.4242 30.024C12.1102 29.122 12.1522 28.824 13.3062 28.624C14.0446 28.4957 14.7911 28.4182 15.5402 28.392C19.8196 28.2423 23.9934 29.7398 27.2016 32.5758C30.4097 35.4119 32.4078 39.3705 32.7842 43.636C32.5682 42.636 31.2622 41.036 30.0462 41.416C29.5282 41.576 29.3362 42.47 28.9962 42.988C28.5663 43.6448 28.0366 44.2305 27.4262 44.724C27.5295 43.7544 27.4809 42.7746 27.2822 41.82C26.9182 43.316 26.1882 45.798 24.3502 45.396C23.7379 45.3025 23.1642 45.0388 22.6946 44.635C22.2249 44.2311 21.8783 43.7034 21.6942 43.112C21.4562 41.592 23.0622 39.81 20.4802 39.684C15.3002 39.43 16.4982 47.048 19.5562 49.034C18.8534 49.1118 18.1678 49.3029 17.5262 49.6C19.4687 50.7281 21.6574 51.3645 23.902 51.4537C26.1466 51.5429 28.379 51.0823 30.4049 50.1119C32.4308 49.1415 34.189 47.6908 35.5263 45.8859C36.8636 44.081 37.7397 41.9767 38.0782 39.756C38.5233 41.7897 38.513 43.8967 38.0482 45.926C37.7996 47.0044 37.4279 48.0506 36.9402 49.044C36.2791 50.3858 35.4005 51.609 34.3402 52.664C33.7122 53.286 32.5602 53.912 32.1642 54.546C34.5881 54.2246 36.9567 53.5733 39.2042 52.61C36.8777 55.7967 33.7793 58.3396 30.2002 60C34.0377 59.7285 37.7474 58.5061 40.9945 56.4429C44.2417 54.3798 46.9242 51.5408 48.8002 48.182C48.2023 51.5412 46.8744 54.7281 44.9102 57.518C47.552 55.7494 49.7997 53.4536 51.5119 50.7749C53.2242 48.0961 54.3642 45.0923 54.8602 41.952C55.3527 44.2508 55.4936 46.611 55.2782 48.952C57.4484 45.9365 58.9144 42.4725 59.5682 38.8153C60.2221 35.158 60.0471 31.4007 59.0562 27.82C58.2982 25.0365 57.1616 22.3702 55.6782 19.896C55.1053 18.9319 54.4783 18.0011 53.8002 17.108C53.5342 16.762 52.1122 15.496 52.1122 15.108C52.1002 15.1467 52.0902 15.1467 52.0822 15.108C52.0822 21.604 45.0822 25.774 39.2202 24.034C41.4492 23.8611 43.5559 22.9463 45.204 21.4356C46.8521 19.9249 47.9464 17.9056 48.3122 15.7C48.636 13.3861 48.1395 11.0318 46.9087 9.04587C45.6778 7.05989 43.7905 5.56759 41.5742 4.828Z" fill="#EA2845"/>
</svg>
