<svg width="64" height="64" viewBox="0 0 64 64" fill="none" xmlns="http://www.w3.org/2000/svg">
<g clip-path="url(#clip0_20_12)">
<path d="M63.9498 4.60761L55.9498 56.4951C55.7623 57.7119 55.0279 58.7726 53.9536 59.3764C53.3481 59.7162 52.6698 59.8885 51.9936 59.8885C51.4701 59.8885 50.9537 59.7866 50.4573 59.5795L35.1323 53.192L28.7748 62.7282C28.2873 63.5626 27.4748 64.0001 26.5998 64.0001C25.1623 64.0001 23.9998 62.8376 23.9998 61.4001V49.3776C23.9998 48.4882 24.2963 47.6239 24.8426 46.9226L51.9998 12.0001L15.2873 45.0376L2.46106 39.6876C1.05456 39.1001 0.101368 37.7751 0.00761835 36.1376C-0.0861317 34.5001 0.691243 33.1726 2.01512 32.4164L58.0151 0.528856C59.3514 -0.234769 61.0001 -0.164519 62.2651 0.704606C63.5301 1.57373 64.1873 3.09011 63.9498 4.60761Z" fill="black"/>
</g>
<defs>
<clipPath id="clip0_20_12">
<rect width="64" height="64" fill="white"/>
</clipPath>
</defs>
</svg>
