<svg width="64" height="64" viewBox="0 0 64 64" fill="none" xmlns="http://www.w3.org/2000/svg">
<path d="M47.654 16.4861C49.3566 16.8821 50.9036 17.7736 52.1 19.0481C52.759 19.7378 53.3313 20.5055 53.804 21.3341C53.826 21.4241 50.736 23.5001 48.862 24.6581C48.794 24.7041 48.524 24.4101 48.218 23.9581C47.8757 23.3696 47.3898 22.8775 46.8057 22.5278C46.2216 22.178 45.5584 21.982 44.878 21.9581C42.724 21.8101 41.336 22.9381 41.346 24.8241C41.3274 25.2874 41.4331 25.7473 41.652 26.1561C42.126 27.1361 43.006 27.7241 45.77 28.9221C50.858 31.1121 53.042 32.5561 54.39 34.6081C55.152 35.9046 55.6212 37.352 55.765 38.849C55.9087 40.346 55.7234 41.8563 55.222 43.2741C54.533 44.8289 53.4403 46.171 52.0575 47.161C50.6746 48.1511 49.052 48.7529 47.358 48.9041C45.5574 49.1106 43.738 49.0918 41.942 48.8481C39.191 48.396 36.6568 47.0757 34.71 45.0801C33.9744 44.2518 33.3517 43.3298 32.858 42.3381C33.0656 42.1837 33.2842 42.0446 33.512 41.9221C33.828 41.7421 35.024 41.0541 36.152 40.4001L38.2 39.2001L38.628 39.8241C39.3489 40.855 40.2665 41.7331 41.328 42.4081C42.4001 42.9961 43.6144 43.2748 44.8356 43.213C46.0568 43.1512 47.2368 42.7513 48.244 42.0581C48.7636 41.5517 49.0884 40.8786 49.1615 40.1568C49.2346 39.4349 49.0514 38.7104 48.644 38.1101C48.092 37.3201 46.964 36.6561 43.758 35.2661C41.2441 34.4184 38.9544 33.0134 37.06 31.1561C36.1579 30.128 35.4916 28.915 35.108 27.6021C34.8244 26.1064 34.7825 24.575 34.984 23.0661C35.3604 21.3297 36.2614 19.7511 37.5651 18.5441C38.8687 17.337 40.5119 16.5599 42.272 16.3181C44.0643 16.1039 45.8786 16.1605 47.654 16.4861ZM30.968 19.4521L30.99 22.3601H21.73V48.6561H15.2V22.3661H5.94002V19.5101C5.91539 18.532 5.94209 17.5533 6.02002 16.5781C6.05402 16.5321 11.684 16.5101 18.51 16.5221L30.932 16.5561L30.968 19.4521Z" fill="#007ACC"/>
</svg>
