<svg width="64" height="64" viewBox="0 0 64 64" fill="none" xmlns="http://www.w3.org/2000/svg">
<path d="M61.0727 15.5104C60.3749 12.5541 58.3186 10.2259 55.7078 9.43575C50.9756 8 32 8 32 8C32 8 13.0244 8 8.29207 9.43575C5.68129 10.226 3.62507 12.5541 2.92718 15.5104C1.65918 20.8687 1.65918 32.0485 1.65918 32.0485C1.65918 32.0485 1.65918 43.2282 2.92718 48.5866C3.62507 51.5429 5.68129 53.7741 8.29207 54.5643C13.0244 56 32 56 32 56C32 56 50.9755 56 55.7078 54.5643C58.3186 53.7741 60.3749 51.5429 61.0727 48.5866C62.3407 43.2282 62.3407 32.0485 62.3407 32.0485C62.3407 32.0485 62.3407 20.8687 61.0727 15.5104ZM25.7938 42.1989V21.8981L41.6537 32.0488L25.7938 42.1989Z" fill="black"/>
</svg>
